<?xml version="1.0" standalone="no"?>
<!DOCTYPE svg PUBLIC "-//W3C//DTD SVG 20010904//EN"
 "http://www.w3.org/TR/2001/REC-SVG-20010904/DTD/svg10.dtd">
<svg version="1.0" xmlns="http://www.w3.org/2000/svg"
 width="1000.000000pt" height="1000.000000pt" viewBox="0 0 1000.000000 1000.000000"
 preserveAspectRatio="xMidYMid meet">
<metadata>
Created by potrace 1.14, written by Peter Selinger 2001-2017
</metadata>
<g transform="translate(0.000000,1000.000000) scale(0.100000,-0.100000)"
fill="#000000" stroke="none">
<path d="M0 5000 l0 -5000 5000 0 5000 0 0 5000 0 5000 -5000 0 -5000 0 0
-5000z m4381 3883 c329 -252 595 -461 591 -465 -14 -14 -3205 -1259 -3216
-1254 -18 8 -1191 906 -1193 914 -2 6 3189 1261 3210 1262 5 0 278 -206 608
-457z m3428 -185 c861 -346 1578 -634 1593 -640 16 -5 26 -14 23 -19 -5 -7
-954 -738 -1148 -883 l-37 -28 -1610 648 c-886 357 -1609 652 -1607 656 1 4
267 210 591 458 467 358 593 449 609 444 11 -3 725 -290 1586 -636z m-4439
-2213 c866 -345 1578 -631 1582 -634 4 -3 4 -11 0 -17 -4 -5 -261 -203 -572
-439 -456 -347 -571 -430 -595 -430 -27 1 -3167 1247 -3189 1266 -11 10 -29
-4 594 469 447 339 560 420 580 417 14 -2 734 -286 1600 -632z m5465 160 c322
-246 583 -451 578 -455 -4 -4 -718 -285 -1585 -624 -1041 -408 -1582 -615
-1592 -609 -28 16 -1165 878 -1166 884 0 9 3144 1257 3162 1254 9 -1 280 -204
603 -450z m-3841 -1537 c3 -398 9 -1550 12 -2560 l7 -1838 -214 104 c-793 386
-3021 1475 -3024 1478 -5 5 -27 3118 -23 3277 l3 134 985 -826 c542 -455 987
-827 990 -826 3 0 284 400 624 889 341 490 623 890 626 890 4 0 10 -325 14
-722z m706 -201 c327 -471 597 -856 600 -856 3 -1 439 364 970 809 l965 810 9
-1671 c4 -933 4 -1674 0 -1679 -21 -19 -3156 -1561 -3162 -1555 -4 4 -8 1139
-10 2523 -2 2405 -1 2516 15 2496 10 -12 286 -406 613 -877z"/>
</g>
</svg>
